<?xml version="1.0" encoding="iso-8859-1"?><!DOCTYPE svg PUBLIC "-//W3C//DTD SVG 1.1//EN" "http://www.w3.org/Graphics/SVG/1.1/DTD/svg11.dtd"><svg viewBox="0 0 682 682" xmlns="http://www.w3.org/2000/svg" xmlns:xlink="http://www.w3.org/1999/xlink"><style>:root>svg{display:none}:root>svg:target{display:block}</style><svg viewBox="0 0 512 512" id="address" xmlns="http://www.w3.org/2000/svg"><path d="M256 0C148.477 0 61 87.477 61 195c0 69.412 21.115 97.248 122.581 231.01C201.194 449.229 221.158 475.546 244 506a15.001 15.001 0 0024.001-.002c22.708-30.29 42.585-56.507 60.123-79.638C429.834 292.209 451 264.292 451 195 451 87.477 363.523 0 256 0zm48.219 408.235c-14.404 18.998-30.383 40.074-48.222 63.789-17.961-23.867-34.031-45.052-48.515-64.146C108.784 277.766 91 254.321 91 195c0-90.981 74.019-165 165-165s165 74.019 165 165c0 59.205-17.83 82.722-116.781 213.235z"/><path d="M256 90c-57.897 0-105 47.103-105 105s47.103 105 105 105 105-47.103 105-105S313.897 90 256 90zm0 180c-41.355 0-75-33.645-75-75s33.645-75 75-75 75 33.645 75 75-33.645 75-75 75z"/></svg><svg viewBox="0 0 357 357" id="close" xmlns="http://www.w3.org/2000/svg"><path d="M357 35.7L321.3 0 178.5 142.8 35.7 0 0 35.7l142.8 142.8L0 321.3 35.7 357l142.8-142.8L321.3 357l35.7-35.7-142.8-142.8z"/></svg><svg viewBox="0 0 24 24" id="facebook" xmlns="http://www.w3.org/2000/svg"><path d="M15.997 3.985h2.191V.169C17.81.117 16.51 0 14.996 0c-3.159 0-5.323 1.987-5.323 5.639V9H6.187v4.266h3.486V24h4.274V13.267h3.345l.531-4.266h-3.877V6.062c.001-1.233.333-2.077 2.051-2.077z"/></svg><svg viewBox="0 0 512 512" id="filter" xmlns="http://www.w3.org/2000/svg"><path d="M420.404 0H91.596C41.09 0 0 41.09 0 91.596v328.809C0 470.91 41.09 512 91.596 512h328.809C470.91 512 512 470.91 512 420.404V91.596C512 41.09 470.91 0 420.404 0zM482 420.404C482 454.368 454.368 482 420.404 482H91.596C57.632 482 30 454.368 30 420.404V91.596C30 57.632 57.632 30 91.596 30h328.809C454.368 30 482 57.632 482 91.596z"/><path d="M432.733 112.467H204.272c-6.281-18.655-23.926-32.133-44.672-32.133s-38.391 13.478-44.672 32.133H79.267c-8.284 0-15 6.716-15 15s6.716 15 15 15h35.662c6.281 18.655 23.926 32.133 44.672 32.133s38.391-13.478 44.672-32.133h228.461c8.284 0 15-6.716 15-15s-6.716-15-15.001-15zM159.6 144.6c-9.447 0-17.133-7.686-17.133-17.133s7.686-17.133 17.133-17.133 17.133 7.686 17.133 17.133S169.047 144.6 159.6 144.6zM432.733 241h-35.662c-6.281-18.655-23.927-32.133-44.672-32.133s-38.39 13.478-44.671 32.133H79.267c-8.284 0-15 6.716-15 15s6.716 15 15 15h228.461c6.281 18.655 23.927 32.133 44.672 32.133s38.391-13.478 44.672-32.133h35.662c8.284 0 15-6.716 15-15s-6.716-15-15.001-15zM352.4 273.133c-9.447 0-17.133-7.686-17.133-17.133s7.686-17.133 17.133-17.133 17.133 7.686 17.133 17.133-7.686 17.133-17.133 17.133zM432.733 369.533H268.539c-6.281-18.655-23.926-32.133-44.672-32.133s-38.391 13.478-44.672 32.133H79.267c-8.284 0-15 6.716-15 15s6.716 15 15 15h99.928c6.281 18.655 23.926 32.133 44.672 32.133s38.391-13.478 44.672-32.133h164.195c8.284 0 15-6.716 15-15s-6.716-15-15.001-15zm-208.866 32.134c-9.447 0-17.133-7.686-17.133-17.133s7.686-17.133 17.133-17.133S241 375.086 241 384.533s-7.686 17.134-17.133 17.134z"/></svg><svg viewBox="0 0 300 300" id="instagram" xmlns="http://www.w3.org/2000/svg"><path d="M38.52.012h222.978C282.682.012 300 17.336 300 38.52v222.978c0 21.178-17.318 38.49-38.502 38.49H38.52c-21.184 0-38.52-17.313-38.52-38.49V38.52C0 17.336 17.336.012 38.52.012zm180.026 33.317c-7.438 0-13.505 6.091-13.505 13.525v32.314c0 7.437 6.067 13.514 13.505 13.514h33.903c7.426 0 13.506-6.077 13.506-13.514V46.854c0-7.434-6.08-13.525-13.506-13.525h-33.903zm47.538 93.539h-26.396a87.715 87.715 0 013.86 25.759c0 49.882-41.766 90.34-93.266 90.34-51.487 0-93.254-40.458-93.254-90.34 0-8.963 1.37-17.584 3.861-25.759H33.35V253.6c0 6.563 5.359 11.902 11.916 11.902h208.907c6.563 0 11.911-5.339 11.911-11.902V126.868zm-115.801-35.89c-33.26 0-60.24 26.128-60.24 58.388 0 32.227 26.98 58.375 60.24 58.375 33.278 0 60.259-26.148 60.259-58.375 0-32.261-26.981-58.388-60.259-58.388z"/></svg><svg viewBox="0 0 95.481 95.481" id="odnoklassniki" xmlns="http://www.w3.org/2000/svg"><path d="M43.041 67.254c-7.402-.772-14.076-2.595-19.79-7.064-.709-.556-1.441-1.092-2.088-1.713-2.501-2.402-2.753-5.153-.774-7.988 1.693-2.426 4.535-3.075 7.489-1.682.572.27 1.117.607 1.639.969 10.649 7.317 25.278 7.519 35.967.329 1.059-.812 2.191-1.474 3.503-1.812 2.551-.655 4.93.282 6.299 2.514 1.564 2.549 1.544 5.037-.383 7.016-2.956 3.034-6.511 5.229-10.461 6.761-3.735 1.448-7.826 2.177-11.875 2.661.611.665.899.992 1.281 1.376 5.498 5.524 11.02 11.025 16.5 16.566 1.867 1.888 2.257 4.229 1.229 6.425-1.124 2.4-3.64 3.979-6.107 3.81-1.563-.108-2.782-.886-3.865-1.977-4.149-4.175-8.376-8.273-12.441-12.527-1.183-1.237-1.752-1.003-2.796.071-4.174 4.297-8.416 8.528-12.683 12.735-1.916 1.889-4.196 2.229-6.418 1.15-2.362-1.145-3.865-3.556-3.749-5.979.08-1.639.886-2.891 2.011-4.014 5.441-5.433 10.867-10.88 16.295-16.322.359-.362.694-.746 1.217-1.305z"/><path d="M47.55 48.329c-13.205-.045-24.033-10.992-23.956-24.218C23.67 10.739 34.505-.037 47.84 0c13.362.036 24.087 10.967 24.02 24.478-.068 13.199-10.971 23.897-24.31 23.851zm12.001-24.186c-.023-6.567-5.253-11.795-11.807-11.801-6.609-.007-11.886 5.316-11.835 11.943.049 6.542 5.324 11.733 11.896 11.709 6.552-.023 11.768-5.285 11.746-11.851z"/></svg><svg viewBox="0 0 451.847 451.847" id="pointer" xmlns="http://www.w3.org/2000/svg"><path d="M225.923 354.706c-8.098 0-16.195-3.092-22.369-9.263L9.27 151.157c-12.359-12.359-12.359-32.397 0-44.751 12.354-12.354 32.388-12.354 44.748 0l171.905 171.915 171.906-171.909c12.359-12.354 32.391-12.354 44.744 0 12.365 12.354 12.365 32.392 0 44.751L248.292 345.449c-6.177 6.172-14.274 9.257-22.369 9.257z"/></svg><svg viewBox="0 0 13 13" id="question" xmlns="http://www.w3.org/2000/svg"><path fill-rule="evenodd" opacity=".5" fill="#252B33" d="M6.5 0a6.5 6.5 0 110 13 6.5 6.5 0 010-13z"/></svg><svg viewBox="0 0 24 24" id="vk" xmlns="http://www.w3.org/2000/svg"><path d="M19.915 13.028c-.388-.49-.277-.708 0-1.146.005-.005 3.208-4.431 3.538-5.932l.002-.001c.164-.547 0-.949-.793-.949h-2.624c-.668 0-.976.345-1.141.731 0 0-1.336 3.198-3.226 5.271-.61.599-.892.791-1.225.791-.164 0-.419-.192-.419-.739V5.949c0-.656-.187-.949-.74-.949H9.161c-.419 0-.668.306-.668.591 0 .622.945.765 1.043 2.515v3.797c0 .832-.151.985-.486.985-.892 0-3.057-3.211-4.34-6.886-.259-.713-.512-1.001-1.185-1.001H.9c-.749 0-.9.345-.9.731 0 .682.892 4.073 4.148 8.553C6.318 17.343 9.374 19 12.154 19c1.671 0 1.875-.368 1.875-1.001 0-2.922-.151-3.198.686-3.198.388 0 1.056.192 2.616 1.667C19.114 18.217 19.407 19 20.405 19h2.624c.748 0 1.127-.368.909-1.094-.499-1.527-3.871-4.668-4.023-4.878z"/></svg><svg viewBox="-21 -117 682.667 682" id="youtube" xmlns="http://www.w3.org/2000/svg"><path d="M626.813 64.035c-7.375-27.418-28.993-49.031-56.407-56.414C520.324-6.082 319.992-6.082 319.992-6.082s-200.324 0-250.406 13.184c-26.887 7.375-49.031 29.52-56.406 56.933C0 114.113 0 217.97 0 217.97s0 104.379 13.18 153.933c7.382 27.414 28.992 49.028 56.41 56.41C120.195 442.02 320 442.02 320 442.02s200.324 0 250.406-13.184c27.418-7.379 49.032-28.992 56.414-56.406 13.176-50.082 13.176-153.934 13.176-153.934s.527-104.383-13.183-154.46zM256.21 313.915V122.022l166.586 95.946zm0 0"/></svg></svg>